<?xml version="1.0" encoding="UTF-8"?>
<svg xmlns="http://www.w3.org/2000/svg" xmlns:xlink="http://www.w3.org/1999/xlink" viewBox="0 0 442.47 339.16">
  <defs>
    <style>
      .cls-1 {
        letter-spacing: -.02em;
      }

      .cls-2 {
        letter-spacing: -.03em;
      }

      .cls-3 {
        fill: #fff;
      }

      .cls-4 {
        fill: none;
      }

      .cls-5 {
        isolation: isolate;
      }

      .cls-6 {
        mix-blend-mode: multiply;
        opacity: .65;
      }

      .cls-7 {
        fill: #d88128;
      }

      .cls-8 {
        letter-spacing: -.03em;
      }

      .cls-9 {
        font-family: ArchivoBlack-Regular, 'Archivo Black';
        font-size: 44.12px;
      }

      .cls-9, .cls-10 {
        fill: #ee7124;
      }

      .cls-11 {
        fill: #010101;
      }

      .cls-12 {
        clip-path: url(#clippath);
      }
    </style>
    <clipPath id="clippath">
      <rect class="cls-4" x="83.32" y="0" width="276.25" height="253.77"/>
    </clipPath>
  </defs>
  <g class="cls-5">
    <g id="Calque_1" data-name="Calque 1">
      <g>
        <text class="cls-9" transform="translate(0 327.38)"><tspan x="0" y="0">N</tspan><tspan class="cls-8" x="36.76" y="0">o</tspan><tspan x="64.73" y="0">va </tspan><tspan class="cls-1" x="135.81" y="0">P</tspan><tspan x="166.96" y="0">aw </tspan><tspan class="cls-2" x="252.74" y="0">F</tspan><tspan x="280.72" y="0">estival</tspan></text>
        <g>
          <g class="cls-6">
            <g class="cls-12">
              <path class="cls-11" d="M263.11.19c-17.59,2.24-28.15,41.57-27.8,56.22.4,16.97,11.82,35.47,29.63,37.92,31.02,4.27,46.22-26.73,38.11-53.7-4.75-15.79-20.66-42.91-39.94-40.45M173.78.15c-17.26,2.23-33.38,32.52-35.33,48.08-7.37,58.7,67.67,62.2,69,8.47.43-17.21-10.62-59.52-33.66-56.55M336.36,80.37c-17.55,1.15-37.76,32.19-38.32,48.63-1.37,40.08,53.57,41.37,60.61,3.84,2.88-15.34-.02-53.93-22.29-52.47M104.13,80.22c-16.1.27-20.96,28.59-20.81,40.8.69,55.45,71.12,49.15,60.68.36-3.16-14.78-23.48-41.44-39.87-41.16M217.23,109.83c-37.54,2.47-35.17,35.36-54.3,56.56-10.8,11.97-27.75,17.38-37.41,30.93-16.48,23.11-1.85,53.02,25.66,56.18,25.22,2.9,46.13-18.63,69.39-17.95,18.71.55,35.14,14.83,53.6,17.18,19.85,2.52,39.62-4.79,44.9-25.77,8.96-35.63-30.39-43.45-46.96-65.06-10.21-13.31-13.68-34.53-28.08-44.16-7.2-4.82-18.12-8.48-26.79-7.91"/>
              <path class="cls-11" d="M217.23,109.83c8.67-.57,19.59,3.09,26.79,7.91,14.4,9.63,17.87,30.85,28.08,44.16,16.58,21.61,55.92,29.43,46.96,65.06-5.28,20.97-25.04,28.29-44.9,25.77-18.47-2.35-34.89-16.63-53.6-17.18-23.26-.68-44.17,20.85-69.39,17.95-27.51-3.16-42.15-33.07-25.66-56.18,9.67-13.55,26.61-18.96,37.41-30.93,19.13-21.2,16.76-54.08,54.3-56.56"/>
              <path class="cls-11" d="M263.11.19c19.28-2.46,35.2,24.66,39.94,40.45,8.11,26.96-7.09,57.96-38.11,53.7-17.81-2.45-29.23-20.95-29.63-37.92-.35-14.66,10.22-53.98,27.8-56.22"/>
              <path class="cls-11" d="M173.78.15c23.04-2.97,34.09,39.33,33.66,56.55-1.33,53.73-76.37,50.23-69-8.47,1.95-15.56,18.08-45.85,35.33-48.08"/>
              <path class="cls-11" d="M104.13,80.22c16.39-.28,36.71,26.38,39.87,41.16,10.45,48.78-59.99,55.09-60.68-.36-.15-12.21,4.71-40.53,20.81-40.8"/>
              <path class="cls-11" d="M336.36,80.37c22.27-1.47,25.16,37.13,22.29,52.47-7.04,37.53-61.98,36.24-60.61-3.84.56-16.44,20.77-47.47,38.32-48.63"/>
            </g>
          </g>
          <path class="cls-7" d="M263.11.19c-17.59,2.24-28.15,41.57-27.8,56.22.4,16.97,11.82,35.47,29.63,37.92,31.02,4.27,46.22-26.73,38.11-53.7-4.75-15.79-20.66-42.91-39.94-40.45M173.78.15c-17.26,2.23-33.38,32.52-35.33,48.08-7.37,58.7,67.67,62.2,69,8.47.43-17.21-10.62-59.52-33.66-56.55M336.36,80.37c-17.55,1.15-37.76,32.19-38.32,48.63-1.37,40.08,53.57,41.37,60.61,3.84,2.88-15.34-.02-53.93-22.29-52.47M104.13,80.22c-16.1.27-20.96,28.59-20.81,40.8.69,55.45,71.12,49.15,60.68.36-3.16-14.78-23.48-41.44-39.87-41.16M217.23,109.83c-37.54,2.47-35.17,35.36-54.3,56.56-10.8,11.97-27.75,17.38-37.41,30.93-16.48,23.11-1.85,53.02,25.66,56.18,25.22,2.9,46.13-18.63,69.39-17.95,18.71.55,35.14,14.83,53.6,17.18,19.85,2.52,39.62-4.79,44.9-25.77,8.96-35.63-30.39-43.45-46.96-65.06-10.21-13.31-13.68-34.53-28.08-44.16-7.2-4.82-18.12-8.48-26.79-7.91"/>
          <path class="cls-10" d="M217.23,109.83c8.67-.57,19.59,3.09,26.79,7.91,14.4,9.63,17.87,30.85,28.08,44.16,16.58,21.61,55.92,29.43,46.96,65.06-5.28,20.97-25.04,28.29-44.9,25.77-18.47-2.35-34.89-16.63-53.6-17.18-23.26-.68-44.17,20.85-69.39,17.95-27.51-3.16-42.15-33.07-25.66-56.18,9.67-13.55,26.61-18.96,37.41-30.93,19.13-21.2,16.76-54.08,54.3-56.56"/>
          <path class="cls-10" d="M263.11.19c19.28-2.46,35.2,24.66,39.94,40.45,8.11,26.96-7.09,57.96-38.11,53.7-17.81-2.45-29.23-20.95-29.63-37.92-.35-14.66,10.22-53.98,27.8-56.22"/>
          <path class="cls-10" d="M173.78.15c23.04-2.97,34.09,39.33,33.66,56.55-1.33,53.73-76.37,50.23-69-8.47,1.95-15.56,18.08-45.85,35.33-48.08"/>
          <path class="cls-10" d="M104.13,80.22c16.39-.28,36.71,26.38,39.87,41.16,10.45,48.78-59.99,55.09-60.68-.36-.15-12.21,4.71-40.53,20.81-40.8"/>
          <path class="cls-10" d="M336.36,80.37c22.27-1.47,25.16,37.13,22.29,52.47-7.04,37.53-61.98,36.24-60.61-3.84.56-16.44,20.77-47.47,38.32-48.63"/>
          <path class="cls-3" d="M237.94,189.74c-.73-2.49-1.08-5.2-2.04-7.55-2.28-5.59-7.91-7.47-13.11-4.43-2.03,1.19-3.82,2.98-5.76,4.41-3.44,2.53-6.83,5.17-10.39,7.45-3.6,2.3-6.76,5.01-8.96,9.03-3.06,5.59-2.24,12.68,1.87,15.93,1.96,1.55,4.23,2.12,6.67,2.22,12.03.49,9.4-.37,19.15,6.36.14.1.26.24.4.33,6.61,4.34,14.04,1.31,17.53-9.05,1.05-3.32.12-8.29-1.77-13.22-1.42-3.7-2.46-7.62-3.59-11.48"/>
          <path class="cls-3" d="M217.38,168.82c2.32,4.82,7.12,5.59,11.02,1.83,5.34-5.15,6.82-16.1,2.97-21.88-2.56-3.85-6.98-4.28-10.35-.68-.35.37-.67.76-.98,1.17-2.17,2.84-3.51,6.23-3.98,9.77-.48,3.66-.12,6.81,1.32,9.79"/>
          <path class="cls-3" d="M238.88,178.44c2.71,1.7,5.54.76,8.21-1.03,2.69-1.8,4.64-4.29,6.24-7.5.98-1.97,1.62-4.1,1.92-6.28.07-.53.13-1.08.15-1.63.29-7.43-5.22-10.94-11.13-6.99-5.05,3.37-7.97,8.4-8.62,14.8-.37,3.63.37,6.83,3.24,8.64"/>
          <path class="cls-3" d="M264.42,189.99c1.47-5.41-.49-9.92-4.91-10.63-4.43-.7-8.02,1.85-10.95,5.62-2.87,3.68-4.46,7.83-3.1,12.45.77,2.63,2.55,4.12,5.12,4.34,5.3.47,11.28-4.26,13.48-10.67.13-.37.27-.74.37-1.12"/>
          <path class="cls-3" d="M208.15,182.02c3.11-4.24,3.78-11.24,1.52-16.14-.27-.6-.57-1.16-.91-1.69-1-1.58-2.3-2.8-4.12-3.37-1.82-.6-3.67-.33-5.32.73-.75.48-1.46,1.13-2.1,1.93-4.55,5.67-4.07,16.07.94,20.31,3.16,2.68,7.25,1.95,9.99-1.78"/>
        </g>
      </g>
    </g>
  </g>
</svg>