<?xml version="1.0" encoding="UTF-8"?>
<svg xmlns="http://www.w3.org/2000/svg" xmlns:xlink="http://www.w3.org/1999/xlink" viewBox="0 0 376.18 310.31">
  <defs>
    <style>
      .cls-1 {
        fill: #fff;
      }

      .cls-2 {
        fill: none;
      }

      .cls-3 {
        isolation: isolate;
      }

      .cls-4 {
        mix-blend-mode: multiply;
        opacity: .65;
      }

      .cls-5 {
        fill: #d88128;
      }

      .cls-6 {
        fill: #010101;
      }

      .cls-7 {
        fill: #ee7124;
      }

      .cls-8 {
        clip-path: url(#clippath);
      }
    </style>
    <clipPath id="clippath">
      <rect class="cls-2" x="68.15" y="0" width="250.43" height="230.05"/>
    </clipPath>
  </defs>
  <g class="cls-3">
    <g id="Calque_1" data-name="Calque 1">
      <g>
        <g class="cls-4">
          <g class="cls-8">
            <path class="cls-6" d="M231.13.17c-15.94,2.03-25.52,37.68-25.2,50.97.36,15.38,10.72,32.16,26.86,34.38,28.12,3.87,41.9-24.24,34.55-48.68-4.31-14.31-18.73-38.9-36.21-36.67M150.15.14c-15.64,2.02-30.26,29.48-32.03,43.58-6.68,53.21,61.34,56.39,62.55,7.68.39-15.61-9.63-53.96-30.52-51.26M297.54,72.86c-15.91,1.05-34.23,29.18-34.74,44.08-1.24,36.33,48.56,37.5,54.94,3.48,2.61-13.9-.02-48.89-20.2-47.56M87.02,72.72c-14.59.25-19,25.92-18.86,36.98.63,50.27,64.48,44.55,55.01.33-2.87-13.4-21.28-37.56-36.14-37.31M189.55,99.56c-34.03,2.24-31.88,32.05-49.23,51.27-9.79,10.85-25.15,15.75-33.92,28.04-14.94,20.95-1.67,48.06,23.27,50.93,22.86,2.63,41.82-16.89,62.9-16.28,16.96.5,31.85,13.45,48.59,15.57,18,2.29,35.92-4.35,40.7-23.36,8.12-32.3-27.54-39.38-42.57-58.97-9.25-12.06-12.41-31.3-25.46-40.03-6.53-4.37-16.43-7.69-24.29-7.17"/>
            <path class="cls-6" d="M189.55,99.56c7.86-.52,17.76,2.8,24.29,7.17,13.05,8.73,16.2,27.97,25.46,40.03,15.03,19.59,50.7,26.68,42.57,58.97-4.78,19.01-22.7,25.64-40.7,23.36-16.74-2.13-31.63-15.08-48.59-15.57-21.08-.62-40.04,18.9-62.9,16.28-24.94-2.87-38.21-29.98-23.27-50.93,8.76-12.28,24.12-17.18,33.92-28.04,17.35-19.22,15.2-49.03,49.23-51.27"/>
            <path class="cls-6" d="M231.13.17c17.48-2.23,31.91,22.36,36.21,36.67,7.35,24.44-6.43,52.54-34.55,48.68-16.15-2.22-26.5-18.99-26.86-34.38-.32-13.29,9.26-48.93,25.2-50.97"/>
            <path class="cls-6" d="M150.15.13c20.89-2.69,30.9,35.66,30.52,51.26-1.2,48.71-69.23,45.54-62.55-7.68,1.77-14.1,16.39-41.57,32.03-43.58"/>
            <path class="cls-6" d="M87.02,72.72c14.86-.25,33.28,23.91,36.14,37.31,9.47,44.22-54.38,49.94-55.01-.33-.14-11.06,4.27-36.74,18.86-36.98"/>
            <path class="cls-6" d="M297.54,72.86c20.19-1.33,22.81,33.66,20.2,47.56-6.38,34.02-56.19,32.85-54.94-3.48.51-14.9,18.83-43.03,34.74-44.08"/>
          </g>
        </g>
        <path class="cls-5" d="M231.13.17c-15.94,2.03-25.52,37.68-25.2,50.97.36,15.38,10.72,32.16,26.86,34.38,28.12,3.87,41.9-24.24,34.55-48.68-4.31-14.31-18.73-38.9-36.21-36.67M150.15.14c-15.64,2.02-30.26,29.48-32.03,43.58-6.68,53.21,61.34,56.39,62.55,7.68.39-15.61-9.63-53.96-30.52-51.26M297.54,72.86c-15.91,1.05-34.23,29.18-34.74,44.08-1.24,36.33,48.56,37.5,54.94,3.48,2.61-13.9-.02-48.89-20.2-47.56M87.02,72.72c-14.59.25-19,25.92-18.86,36.98.63,50.27,64.48,44.55,55.01.33-2.87-13.4-21.28-37.56-36.14-37.31M189.55,99.56c-34.03,2.24-31.88,32.05-49.23,51.27-9.79,10.85-25.15,15.75-33.92,28.04-14.94,20.95-1.67,48.06,23.27,50.93,22.86,2.63,41.82-16.89,62.9-16.28,16.96.5,31.85,13.45,48.59,15.57,18,2.29,35.92-4.35,40.7-23.36,8.12-32.3-27.54-39.38-42.57-58.97-9.25-12.06-12.41-31.3-25.46-40.03-6.53-4.37-16.43-7.69-24.29-7.17"/>
        <path class="cls-7" d="M189.55,99.56c7.86-.52,17.76,2.8,24.29,7.17,13.05,8.73,16.2,27.97,25.46,40.03,15.03,19.59,50.7,26.68,42.57,58.97-4.78,19.01-22.7,25.64-40.7,23.36-16.74-2.13-31.63-15.08-48.59-15.57-21.08-.62-40.04,18.9-62.9,16.28-24.94-2.87-38.21-29.98-23.27-50.93,8.76-12.28,24.12-17.18,33.92-28.04,17.35-19.22,15.2-49.03,49.23-51.27"/>
        <path class="cls-7" d="M231.13.17c17.48-2.23,31.91,22.36,36.21,36.67,7.35,24.44-6.43,52.54-34.55,48.68-16.15-2.22-26.5-18.99-26.86-34.38-.32-13.29,9.26-48.93,25.2-50.97"/>
        <path class="cls-7" d="M150.15.13c20.89-2.69,30.9,35.66,30.52,51.26-1.2,48.71-69.23,45.54-62.55-7.68,1.77-14.1,16.39-41.57,32.03-43.58"/>
        <path class="cls-7" d="M87.02,72.72c14.86-.25,33.28,23.91,36.14,37.31,9.47,44.22-54.38,49.94-55.01-.33-.14-11.06,4.27-36.74,18.86-36.98"/>
        <path class="cls-7" d="M297.54,72.86c20.19-1.33,22.81,33.66,20.2,47.56-6.38,34.02-56.19,32.85-54.94-3.48.51-14.9,18.83-43.03,34.74-44.08"/>
        <path class="cls-1" d="M208.32,172c-.67-2.26-.98-4.71-1.85-6.84-2.07-5.07-7.17-6.78-11.89-4.01-1.84,1.08-3.46,2.7-5.22,4-3.12,2.3-6.19,4.69-9.42,6.75-3.27,2.09-6.13,4.54-8.12,8.19-2.77,5.07-2.03,11.49,1.69,14.44,1.77,1.4,3.83,1.92,6.05,2.01,10.91.44,8.52-.33,17.36,5.76.13.09.23.21.36.3,5.99,3.93,12.73,1.19,15.89-8.2.95-3.01.11-7.52-1.6-11.98-1.29-3.36-2.23-6.91-3.26-10.41"/>
        <path class="cls-1" d="M189.69,153.04c2.1,4.37,6.45,5.07,9.99,1.66,4.84-4.67,6.19-14.59,2.69-19.84-2.32-3.49-6.33-3.88-9.38-.61-.31.34-.61.69-.89,1.06-1.97,2.57-3.18,5.65-3.6,8.86-.43,3.32-.11,6.17,1.2,8.88"/>
        <path class="cls-1" d="M209.17,161.76c2.46,1.54,5.02.69,7.44-.93,2.44-1.63,4.21-3.89,5.65-6.8.88-1.79,1.47-3.72,1.74-5.69.07-.48.12-.98.13-1.48.26-6.74-4.73-9.92-10.09-6.34-4.58,3.06-7.23,7.62-7.81,13.42-.33,3.29.33,6.19,2.94,7.83"/>
        <path class="cls-1" d="M232.33,172.24c1.33-4.91-.45-8.99-4.46-9.63-4.02-.64-7.27,1.68-9.93,5.09-2.6,3.33-4.04,7.1-2.81,11.29.7,2.38,2.31,3.74,4.64,3.94,4.81.42,10.22-3.86,12.22-9.67.11-.34.24-.67.34-1.01"/>
        <path class="cls-1" d="M181.31,165.01c2.82-3.84,3.43-10.19,1.38-14.63-.25-.54-.52-1.05-.82-1.53-.91-1.43-2.08-2.54-3.74-3.05-1.65-.55-3.33-.3-4.82.66-.68.44-1.32,1.02-1.9,1.75-4.12,5.14-3.69,14.57.85,18.41,2.87,2.43,6.58,1.77,9.05-1.62"/>
      </g>
      <path class="cls-7" d="M25.61,270.14c.36.91,1.11,7.43,2.25,19.57,0,.32-.34,1.48-1.02,3.48l-1.13,2.63c-.18.39-.35.73-.51,1.02-.16.34-.58.99-1.26,1.94-.36.5-.94,1.07-1.74,1.7-.8.64-1.84,1.34-3.14,2.11-.36.18-.73.36-1.11.55-.38.18-.76.35-1.14.51-.7.32-1.5.6-2.39.85-.77.23-1.55.4-2.32.51-.32.05-.68.09-1.09.12-.41.03-.84.05-1.3.05-.64,0-1.31-.04-2.01-.12-.7-.08-1.41-.22-2.11-.43-1.21-.39-2.23-.94-3.07-1.67-1.68-1.48-2.52-3.38-2.52-5.69,0-1.34.2-2.8.61-4.36.23-.8.49-1.61.8-2.46.31-.84.66-1.73,1.07-2.66,1.57-3.57,2.57-5.35,3-5.35l-.2,1.53c-1.89,3.96-2.83,6.46-2.83,7.5,0,2.39.97,4.26,2.9,5.63,1.75,1.2,3.78,1.81,6.1,1.81h1.4l.31-.03c.52-.05.99-.09,1.4-.12.41-.03.74-.07.99-.12.3-.05.62-.11.97-.19.35-.08.73-.18,1.14-.29l2.35-.75c3-.95,4.5-2.08,4.5-3.38l-1.77-22.61c0-.2-.1-.67-.31-1.4-.32-1.02-.65-2.03-1.01-3.03-.35-1-.73-2.02-1.14-3.07.48-.98,1.14-2.63,1.98-4.94.91.98,1.9,1.94,2.98,2.88,1.08.94,2.24,1.89,3.5,2.85-.25.59-.56,1.32-.92,2.18-.36.86-.78,1.88-1.26,3.03l-.95.2ZM38.71,294.32l-2.35-28.37,3.61-4.36c0,2.14.38,6.63,1.13,13.47.36,3.41.66,6.02.89,7.84.23,1.82.39,2.86.48,3.14l.07.55.41.82c.18.18.56.36,1.13.55l1.16.1h2.05v6.27h-8.56ZM55.77,288.05c0-1.59.16-2.77.48-3.55.18-.39.41-.84.7-1.35.28-.51.64-1.09,1.07-1.72.43-.66.89-1.23,1.38-1.72s.99-.91,1.52-1.28c.8-.52,1.64-1.05,2.54-1.57.9-.52,1.78-.99,2.64-1.42.86-.42,1.7-.76,2.51-1.02.81-.26,1.52-.39,2.13-.39.89,0,1.69.72,2.42,2.15l.78,2.08.17,2.52c0,.91-.15,1.65-.44,2.22l-2.11,3.78-.92,1.26h6.1v6.27h-30.96v-6.27h9.99ZM69.89,286.2c.02-.16.04-.31.05-.44.01-.14.02-.27.02-.41,0-.66-.1-1.25-.29-1.77-.19-.52-.45-1.03-.77-1.53-.82-1.3-1.97-1.94-3.44-1.94-.48,0-1.03.1-1.65.29-.63.19-1.34.51-2.13.94-1.73.75-2.59,1.67-2.59,2.76,0,.95.66,1.92,1.98,2.9l.78.44,1.26.48.89.2h.89c.84,0,1.47-.03,1.88-.1.27-.07.57-.17.9-.31.33-.14.69-.3,1.07-.48l1.16-.92v-.1ZM64.13,268.54l-3.78-3.27,3.68-3.58,3.89,3.48-3.78,3.38ZM89.81,288.05c.25-.16.45-.44.6-.85.15-.41.28-.92.39-1.53l.2-4.67,3.41-4.06-.58,7.06c0,1.02.4,1.96,1.19,2.8.98.84,2.07,1.26,3.27,1.26h.51v6.27h-4.88c-1.96-2.59-3.07-3.89-3.34-3.89-.25,0-1.21,1.3-2.86,3.89h-11.93v-6.27h14.01ZM85.75,265.58l-2.97,4.02-4.16-2.97,2.9-4.02,4.23,2.97ZM91.89,265.58l-2.97,4.02-4.16-2.97,2.9-4.02,4.23,2.97ZM97.46,288.01h10.74l.38-.51.38-4.19,3.82-3.92-.48,2.86-.44,1.98-.48,3.78h9.38l.38-.51.38-4.19,3.82-3.92-.48,2.86-.44,1.98-.48,3.78h6.82l.07-.51-.58-4.67,4.13-4.88v7.33l-.44,2.73h3.48v6.27h-3.41l-1.4-1.7-.72,1.7h-9.07l-1.57-1.74-1.4,1.81h-9.79l-1.91-1.36-1.84,1.3h-8.83v-6.27ZM150.23,288.05c.25-.16.45-.44.6-.85.15-.41.28-.92.39-1.53l.2-4.67,3.41-4.06-.58,7.06c0,1.02.4,1.96,1.19,2.8.98.84,2.07,1.26,3.27,1.26h.51v6.27h-4.88c-1.96-2.59-3.07-3.89-3.34-3.89-.25,0-1.21,1.3-2.86,3.89h-11.93v-6.27h14.01ZM146.68,304.55l-3,4.02-4.16-2.97,2.9-4.02,4.26,2.97ZM152.82,304.55l-2.97,4.02-4.19-2.97,2.93-4.02,4.23,2.97ZM180.44,288.05l-.1-1.98-.31-1.43c-.43-2.14-1.02-3.53-1.77-4.19l-.48-.27-.68.38-2.63,2.69c-1,.59-2.36.89-4.09.89-1.59,0-3.03-.45-4.33-1.36-1.27-.89-1.91-1.88-1.91-2.97,0-1.73,1.23-4,3.68-6.82,2.73-3.18,5.32-4.77,7.77-4.77,1.57,0,3.26,1.84,5.08,5.52,1.84,3.8,2.76,7.51,2.76,11.15l-.58,4.3c-.41,3.14-.68,4.85-.82,5.15h-23.83v-6.27h22.23ZM168.1,265.44l-3.99-3.44,3.89-3.75,4.09,3.65-3.99,3.55ZM177.2,278.33l-.72-1.36-1.3-1.67c-.2-.18-.39-.38-.55-.58-.16-.2-.37-.41-.63-.61-.26-.2-.6-.39-1.02-.56-.42-.17-.98-.32-1.69-.46-.43,0-1.07.3-1.91.89-.86.93-1.3,1.6-1.3,2.01v.1c.07.41.32.78.75,1.13.23.16.51.32.84.49.33.17.69.34,1.07.49.39.16.78.3,1.19.41.41.11.82.18,1.23.2l1.5.1,1.91-.58h.61ZM228,278.36c1.57,2.71,2.35,5.56,2.35,8.56,0,4.8-1.17,9.49-3.51,14.08-2.73,5.27-6,7.91-9.82,7.91-.66,0-1.94-.17-3.85-.51-1.91-.3-3.24-.57-3.99-.82-.39-.11-.9-.26-1.53-.44-.64-.18-1.42-.4-2.35-.65-1.82-.52-2.8-.99-2.93-1.4,0-.05.18-.11.55-.2l.99.17,2.76.65,1.6.27,1.67.14c.66,0,1.22-.06,1.67-.17l.92-.24.72-.31c1.84-.77,3.57-1.7,5.2-2.78,1.63-1.08,3.21-2.37,4.76-3.87,3.32-3.14,4.98-5.97,4.98-8.49,0-.5-.1-1.16-.31-1.98-.11-.55-.25-.99-.41-1.33h-.75l-.55,1.57c-.86,1.77-1.47,2.86-1.81,3.27-1.07,1.07-2.65,1.6-4.74,1.6-1.91,0-3.24-.83-3.99-2.49-.09-.14-.2-.72-.34-1.74l-.14-3.1c0-.84.24-1.81.73-2.92.49-1.1,1.23-2.4,2.23-3.9,2.16-3.25,4.11-4.88,5.86-4.88,1.18,0,2.52,1.33,4.02,3.99h0ZM225.51,284.77c0-.68-.43-1.49-1.3-2.42-.93-.89-1.86-1.33-2.8-1.33-.41,0-.89.1-1.43.31s-1.08.53-1.6.99c-1.02.86-1.53,1.66-1.53,2.39,0,.61.31,1.09.92,1.43.61.32,1.2.57,1.77.75.43.11.85.2,1.24.26.4.06.77.09,1.11.09.25,0,.43-.01.55-.03.41-.05.97-.22,1.67-.51.39-.16.68-.3.89-.41.2-.11.33-.19.38-.24.09-.11.14-.53.14-1.26h0ZM236.79,294.32l-2.35-28.37,3.61-4.36c0,2.14.38,6.63,1.13,13.47.36,3.41.66,6.02.89,7.84.23,1.82.39,2.86.48,3.14l.07.55.41.82c.18.18.56.36,1.13.55l1.16.1h2.05v6.27h-8.56ZM251.67,294.39h-6.92v-6.27h6.92v6.27ZM267.55,288.05c.2-.27.31-.52.31-.75,0-.09-.01-.16-.03-.2-.07-.25-.33-.9-.78-1.94-.43-1.02-.93-2.03-1.48-3.03-.56-1-1.24-1.98-2.06-2.93l3.17-5.32c.82,1.23,1.48,2.3,1.99,3.21.51.91.94,1.77,1.28,2.59.25.55.44,1.21.58,1.99.14.78.2,1.71.2,2.78,0,.52-.02,1.06-.05,1.62-.03.56-.1,1.17-.19,1.82l-.41,3.27c-.25,1.84-.42,2.9-.51,3.17h-18.45v-6.27h16.44ZM265.43,305.95l-3.24,4.36-4.5-3.24,3.14-4.36,4.6,3.24ZM294.89,294.32l-2.35-28.37,3.61-4.36c0,2.14.38,6.63,1.13,13.47.36,3.41.66,6.02.89,7.84.23,1.82.39,2.86.48,3.14l.07.55.41.82c.18.18.56.36,1.13.55l1.16.1h2.05v6.27h-8.56ZM324.4,288.05l-.1-1.98-.31-1.43c-.43-2.14-1.02-3.53-1.77-4.19l-.48-.27-.68.38-2.63,2.69c-1,.59-2.36.89-4.09.89-1.59,0-3.03-.45-4.33-1.36-1.27-.89-1.91-1.88-1.91-2.97,0-1.73,1.23-4,3.68-6.82,2.73-3.18,5.32-4.77,7.77-4.77,1.57,0,3.26,1.84,5.08,5.52,1.84,3.8,2.76,7.51,2.76,11.15l-.58,4.3c-.41,3.14-.68,4.85-.82,5.15h-23.83v-6.27h22.23ZM312.06,265.44l-3.99-3.44,3.89-3.75,4.09,3.65-3.99,3.55ZM321.16,278.33l-.72-1.36-1.3-1.67c-.2-.18-.39-.38-.55-.58-.16-.2-.37-.41-.63-.61-.26-.2-.6-.39-1.02-.56-.42-.17-.98-.32-1.69-.46-.43,0-1.07.3-1.91.89-.86.93-1.3,1.6-1.3,2.01v.1c.07.41.32.78.75,1.13.23.16.51.32.84.49.33.17.69.34,1.07.49.39.16.78.3,1.19.41.41.11.82.18,1.23.2l1.5.1,1.91-.58h.61ZM355.39,294.32l-.41.31c-.39,1.5-.97,2.95-1.74,4.35-.77,1.4-1.74,2.85-2.9,4.35-1.3,1.64-2.56,2.88-3.78,3.72-1.23.84-2.47,1.26-3.72,1.26h-.07c-.73,0-1.72-.21-2.98-.63-1.26-.42-2.86-1.04-4.79-1.86-3.68-1.61-5.58-2.66-5.69-3.14,0-.05.08-.08.24-.1l4.74,1.4,1.53.17c1.66,0,3.24-.2,4.74-.61.73-.2,1.5-.52,2.32-.95.82-.43,1.68-.99,2.59-1.67.86-.64,1.66-1.24,2.39-1.81.73-.57,1.35-1.11,1.88-1.64l1.33-1.33c.34-.39.55-.99.61-1.81h-.89c-2.59,0-4.81-.26-6.65-.78v-.03c-2.57-.73-3.85-2.08-3.85-4.06,0-.77.23-1.79.68-3.05.45-1.26,1.13-2.86,2.01-4.79,2.11-4.59,4.22-6.89,6.31-6.89,1.61,0,3.19,1.93,4.74,5.8,1.18,3,1.77,5.38,1.77,7.13l.41.41h1.57v6.27h-2.39ZM349.67,282.66c-.8-1.23-1.74-1.84-2.83-1.84-.93,0-1.64.28-2.11.85-.23.3-.42.54-.56.73-.15.19-.24.35-.29.46-.05.11-.12.26-.22.44-.1.18-.22.4-.36.65,0,1.02.59,1.96,1.77,2.8.59.36,1.17.63,1.74.78.57.16,1.18.24,1.84.24,1.27,0,2.13-.39,2.56-1.16l.03-.34c-.41-1.3-.75-2.23-1.02-2.8l-.55-.82ZM372.22,288.05c.16-.16.24-.45.24-.89,0-.34-.06-.83-.17-1.47v-.03c-.8-2.77-2.15-5.18-4.06-7.23l3.44-5.97,2.01,3.03c.32.57.6,1.11.85,1.64.25.52.49,1.03.72,1.53.34.89.58,1.78.72,2.69.14.91.2,1.9.2,2.97v.65c0,.2-.01.43-.03.68-.02.86-.26,2.31-.72,4.33l-1.3,4.33h-17.49v-6.27h15.58ZM369.8,265l-3.14,4.19-4.33-3.14,3.03-4.19,4.43,3.14Z"/>
    </g>
  </g>
</svg>